<?xml version="1.0" standalone="no"?>
<!DOCTYPE svg PUBLIC "-//W3C//DTD SVG 20010904//EN"
 "http://www.w3.org/TR/2001/REC-SVG-20010904/DTD/svg10.dtd">
<svg version="1.0" xmlns="http://www.w3.org/2000/svg"
 width="1116.000000pt" height="1080.000000pt" viewBox="0 0 1116.000000 1080.000000"
 preserveAspectRatio="xMidYMid meet">
<metadata>
Created by potrace 1.15, written by Peter Selinger 2001-2017
</metadata>
<g transform="translate(0.000000,1080.000000) scale(0.100000,-0.100000)"
fill="#000000" stroke="none">
<path d="M3755 10229 c-409 -38 -838 -156 -1210 -333 -561 -267 -1075 -720
-1421 -1252 -471 -727 -655 -1587 -523 -2449 65 -423 208 -832 422 -1205 390
-681 1014 -1224 1736 -1510 436 -172 840 -250 1304 -250 569 0 1076 119 1580
371 957 480 1654 1393 1861 2439 45 226 58 355 63 623 5 258 0 353 -33 592
-77 551 -319 1131 -661 1582 -458 604 -1082 1042 -1783 1252 -231 69 -349 93
-625 131 -107 15 -585 21 -710 9z m615 -664 c837 -89 1588 -541 2059 -1240
251 -374 394 -754 462 -1230 26 -182 28 -513 4 -695 -46 -356 -135 -649 -285
-947 -213 -420 -508 -765 -885 -1035 -968 -694 -2283 -709 -3265 -37 -629 431
-1061 1095 -1195 1836 -139 775 36 1551 493 2188 86 120 135 178 267 314 343
354 748 600 1230 746 177 54 347 85 585 108 97 10 411 5 530 -8z"/>
<path d="M3700 9063 c-310 -54 -649 -180 -878 -326 -472 -304 -823 -747 -986
-1247 -82 -250 -113 -419 -123 -665 -24 -622 184 -1194 607 -1674 160 -181
452 -406 652 -503 64 -31 63 -20 -5 50 -273 284 -469 599 -600 967 -111 311
-159 592 -158 935 0 732 287 1421 804 1932 189 187 383 332 618 463 65 37 119
68 119 71 0 4 -11 4 -50 -3z"/>
<path d="M4385 8293 c-84 -93 -125 -167 -125 -223 0 -42 25 -99 78 -177 67
-100 78 -167 41 -253 -15 -34 -29 -52 -50 -61 -34 -13 -59 -45 -59 -72 0 -10
14 -32 30 -49 17 -16 30 -33 30 -36 0 -4 14 -19 31 -33 46 -38 29 -59 -19 -23
-67 52 -138 74 -238 74 -123 0 -180 -19 -444 -145 -254 -122 -337 -148 -467
-149 -50 0 -95 3 -99 6 -3 4 5 21 20 38 63 75 12 180 -88 180 -40 0 -89 -42
-100 -85 -8 -33 20 -98 64 -148 l33 -38 -16 -42 c-38 -101 -123 -333 -222
-607 -58 -162 -128 -353 -155 -425 -26 -71 -54 -147 -61 -167 -9 -27 -21 -40
-43 -48 -30 -11 -30 -12 -12 -25 11 -8 42 -18 69 -21 27 -4 51 -12 53 -19 3
-7 24 -21 47 -31 23 -10 53 -26 67 -36 46 -32 147 -51 280 -51 143 0 238 19
295 58 21 14 44 25 51 25 7 0 25 10 41 23 15 13 54 29 86 36 62 13 71 25 33
43 -29 12 -30 15 -138 313 -44 121 -101 279 -127 350 -157 425 -213 586 -208
592 4 3 17 -1 29 -9 50 -32 121 -48 217 -48 117 0 182 17 393 101 252 100 265
103 413 104 101 0 142 -4 185 -19 30 -10 59 -22 63 -26 4 -4 5 -26 1 -48 -6
-38 -11 -44 -50 -62 -50 -22 -64 -44 -41 -67 13 -14 13 -19 0 -51 -18 -43 -11
-84 21 -122 l23 -28 -20 -119 c-27 -163 -30 -506 -4 -606 l17 -68 -27 -23 -27
-23 22 -19 c14 -12 20 -25 16 -39 -5 -22 3 -28 69 -49 25 -8 21 -29 -13 -54
-37 -28 -78 -97 -95 -162 -9 -34 -23 -58 -42 -73 -15 -12 -49 -41 -75 -64 -26
-23 -90 -67 -143 -98 -165 -97 -187 -130 -122 -179 58 -44 268 -95 476 -117
265 -27 719 65 746 152 10 31 -33 70 -159 146 -151 91 -236 170 -257 237 -22
72 -42 105 -88 150 -44 43 -42 60 9 71 39 8 56 30 41 49 -10 12 -8 17 8 26 27
14 27 34 0 52 l-22 14 19 90 c27 131 25 364 -5 555 l-23 146 26 38 c28 40 34
92 15 127 -8 15 -8 26 2 44 10 20 10 27 -5 43 -10 11 -31 23 -47 26 -31 7 -43
32 -37 81 3 25 10 31 58 48 77 26 235 32 327 13 40 -9 146 -45 236 -81 288
-114 275 -111 427 -111 126 0 139 2 194 28 32 15 60 27 62 27 3 0 -60 -182
-119 -340 -37 -98 -166 -455 -242 -665 -92 -257 -86 -243 -119 -255 -29 -10
-30 -12 -13 -25 10 -7 41 -16 68 -20 28 -4 53 -13 55 -20 3 -7 24 -21 47 -31
23 -10 53 -26 67 -36 95 -67 457 -69 553 -3 18 12 48 27 67 34 19 6 43 20 55
30 11 10 46 23 78 30 31 7 57 16 57 21 0 5 -12 16 -28 24 -24 12 -37 41 -101
218 -40 111 -96 264 -123 338 -59 161 -115 315 -196 543 -34 92 -64 172 -67
178 -4 5 11 29 32 52 73 79 81 152 22 201 -86 73 -212 -21 -169 -125 7 -16 22
-35 32 -40 40 -21 2 -34 -95 -33 -128 2 -227 34 -476 153 -260 124 -309 141
-421 141 -105 0 -164 -16 -230 -64 -58 -42 -60 -42 -60 -18 0 10 11 25 25 32
14 7 25 17 25 21 0 4 15 25 34 48 23 27 32 47 29 61 -6 21 -57 70 -74 70 -15
0 -59 101 -59 136 0 47 18 92 67 165 24 37 50 83 58 103 22 52 18 123 -9 175
-21 41 -163 209 -177 210 -4 1 -42 -38 -84 -86z m-1357 -1845 l-3 -593 -150
-6 c-82 -4 -183 -10 -222 -14 -51 -5 -73 -4 -73 3 0 7 15 53 34 104 19 51 65
176 101 278 37 102 89 246 116 320 28 74 70 191 95 260 80 219 89 240 97 240
4 0 6 -267 5 -592z m65 477 c20 -55 58 -161 86 -235 62 -169 210 -577 267
-735 24 -65 41 -121 39 -124 -2 -2 -58 1 -124 8 -65 6 -165 11 -220 11 l-101
0 0 597 c0 328 4 593 8 588 5 -6 25 -55 45 -110z m3042 -473 c112 -306 208
-570 214 -586 6 -16 9 -31 7 -34 -3 -2 -59 0 -125 7 -65 6 -165 11 -220 11
l-101 0 0 598 c1 424 4 592 11 579 6 -10 102 -269 214 -575z m-240 0 c1 -312
-1 -575 -3 -584 -4 -16 -17 -18 -105 -18 -56 0 -152 -5 -215 -11 -62 -6 -116
-9 -119 -5 -5 5 59 189 187 536 22 58 69 188 105 290 93 262 137 372 143 365
3 -3 6 -261 7 -573z"/>
<path d="M6963 4433 c-169 -213 -451 -493 -600 -598 -24 -17 -43 -35 -43 -42
0 -12 426 -443 438 -443 4 0 9 28 10 62 9 211 134 418 322 528 92 55 202 89
289 91 39 1 71 6 71 11 0 14 -422 438 -436 438 -7 0 -30 -21 -51 -47z"/>
<path d="M7435 3885 c-257 -59 -447 -240 -512 -485 -27 -101 -22 -254 11 -355
53 -164 1 -108 1343 -1451 684 -684 1263 -1257 1288 -1274 304 -209 720 -133
925 170 141 209 146 483 13 713 -29 50 -281 308 -1252 1280 -669 669 -1243
1239 -1276 1266 -71 57 -135 91 -230 121 -89 27 -228 34 -310 15z"/>
</g>
</svg>
